# xmcd
# 
# Track frame offsets:
#   150
#   19604
#   37003
#   52972
#   72060
#   92705
#   108276
#   123900
#   141224
#   156472
#   173378
#   189172
#   205425
#   218598
#   232078
# 
# Disc length: 3348 seconds
# 
# Revision: 2
# Processed by: cddbd v1.5.2PL0 Copyright (c) Steve Scherf et al.
# Submitted via: Synapstar 1.0 
# 
DISCID=c70d120f
DTITLE=Various Artist - 60350-
DYEAR=2006
DGENRE=Country
TTITLE0=Strait, George - Seashores Of Old Mexico, The
TTITLE1=Holy, Steve - Brand New Girlfriend
TTITLE2=Wilson, Gretchen and Merle Haggard - Politically Uncorrect
TTITLE3=Ketchum, Hal - Just This Side Of Heaven (Hal-lelujah)
TTITLE4=Paisley, Brad - She's Everything
TTITLE5=Underwood, Carrie - Before He Cheats
TTITLE6=Black, Clint - Drinkin' Songs and Other Logic
TTITLE7=Willmon, Trent - On Again Tonight
TTITLE8=Cowboy Crush - Hillbilly Nation
TTITLE9=Cagle, Chris - Wal-Mart Parking Lot
TTITLE10=Pierce, John - I'd Still Have You
TTITLE11=Bomshel - It Was An Absolutely Finger Lickin' Grits and Chicken Country Music Love Song
TTITLE12=Currington, Billy - Why, Why, Why
TTITLE13=Monroe, Ashley - Sastified
TTITLE14=Corbett, John - Good To Go
EXTD=MediaType: Karaoke CD+G Producer: Chartbuster
EXTT0=
EXTT1=
EXTT2=
EXTT3=
EXTT4=
EXTT5=
EXTT6=
EXTT7=
EXTT8=
EXTT9=
EXTT10=
EXTT11=
EXTT12=
EXTT13=
EXTT14=
PLAYORDER=
